<svg width="32" height="29" viewBox="0 0 32 29" fill="none" xmlns="http://www.w3.org/2000/svg">
<path d="M0.42112 7.34181C0.565217 7.13356 0.757653 6.96334 0.981938 6.84574C1.20622 6.72814 1.45567 6.66666 1.70892 6.66658H23.1206L24.9285 2.32691C25.1655 1.75542 25.567 1.2672 26.0818 0.924133C26.5967 0.581068 27.2019 0.398616 27.8206 0.399909H31.4756V3.53324H27.8206L20.3883 21.3697C20.2692 21.6551 20.0684 21.8989 19.8111 22.0703C19.5538 22.2418 19.2515 22.3333 18.9423 22.3332H6.40892C5.75562 22.3332 5.17125 21.9275 4.94095 21.318L0.240953 8.78471C0.152127 8.54755 0.122117 8.29239 0.153495 8.04109C0.184874 7.78979 0.276704 7.54985 0.42112 7.34181ZM7.49462 19.1999H17.8973L21.814 9.79991H3.96962L7.49462 19.1999Z" fill="#DC272D"/>
<path d="M18.159 28.5999C16.8612 28.5999 15.809 27.5478 15.809 26.2499C15.809 24.952 16.8612 23.8999 18.159 23.8999C19.4569 23.8999 20.509 24.952 20.509 26.2499C20.509 27.5478 19.4569 28.5999 18.159 28.5999Z" fill="#DC272D"/>
<path d="M7.19224 28.5999C5.89437 28.5999 4.84224 27.5478 4.84224 26.2499C4.84224 24.952 5.89437 23.8999 7.19224 23.8999C8.49011 23.8999 9.54224 24.952 9.54224 26.2499C9.54224 27.5478 8.49011 28.5999 7.19224 28.5999Z" fill="#DC272D"/>
</svg>
