<svg width="75" height="76" viewBox="0 0 75 76" fill="none" xmlns="http://www.w3.org/2000/svg">
<rect width="75" height="76" fill="#009BDE" fill-opacity="0.2"/>
<path d="M9.36328 25.3623H6.96387V19.1074H19.6787V28.582C19.6787 30.1816 19.8291 31.2549 20.1299 31.8018C20.417 32.3623 21.0322 32.6426 21.9756 32.6426C23.124 32.6426 24.1904 32.335 25.1748 31.7197V25.3623H22.4473V19.1074H35.4902V32.7451H37.8896V39H25.1748V36.4775C22.4541 38.4053 19.6719 39.3691 16.8281 39.3691C14.791 39.3691 13.041 38.7197 11.5781 37.4209C10.1016 36.1221 9.36328 33.6748 9.36328 30.0791V25.3623Z" fill="#DC272D"/>
<path d="M51.1914 44.1357C51.1914 45.5713 51.5195 46.6514 52.1758 47.376C52.8184 48.1143 53.6318 48.4834 54.6162 48.4834C56.9541 48.4834 58.123 46.9932 58.123 44.0127C58.123 41.1006 57.002 39.6445 54.7598 39.6445C53.7344 39.6445 52.8867 40 52.2168 40.7109C51.5332 41.4355 51.1914 42.5771 51.1914 44.1357ZM38.5381 40.3623V34.1074H51.2529V35.4404C53.4404 34.3057 55.6895 33.7383 58 33.7383C60.9531 33.7383 63.4893 34.6953 65.6084 36.6094C67.7139 38.5371 68.7666 41.0596 68.7666 44.1768C68.7666 47.3213 67.7344 49.8027 65.6699 51.6211C63.5918 53.4531 60.8916 54.3691 57.5693 54.3691C55.1084 54.3691 53.0029 53.8223 51.2529 52.7285V56.8711H53.8779V63.126H38.4971V56.8711H40.9375V40.3623H38.5381Z" fill="#DC272D"/>
</svg>
