<svg width="292" height="34" viewBox="0 0 292 34" fill="none" xmlns="http://www.w3.org/2000/svg">
<path d="M18.0908 7.48633V13.9561H19.5557C21.4762 13.9561 22.7783 13.8991 23.4619 13.7852C24.1943 13.6712 24.8128 13.3457 25.3174 12.8086C25.8219 12.304 26.0742 11.6123 26.0742 10.7334C26.0742 9.85449 25.8219 9.15462 25.3174 8.63379C24.8128 8.09668 24.1699 7.77116 23.3887 7.65723C22.64 7.54329 21.2728 7.48633 19.2871 7.48633H18.0908ZM20.6543 34H2.19727V25.8701H4.95605V8.16992H2.19727V0.0400391H20.6543C22.3145 0.0400391 23.8525 0.0725911 25.2686 0.137695C26.6846 0.186523 27.8971 0.267904 28.9062 0.381836C29.9154 0.479492 30.8431 0.617839 31.6895 0.796875C34.0658 1.30143 35.9945 2.40007 37.4756 4.09277C38.973 5.81803 39.7217 7.85254 39.7217 10.1963C39.7217 11.9541 39.266 13.5492 38.3545 14.9814C37.443 16.3975 36.2467 17.4391 34.7656 18.1064L39.4531 25.8701H41.8945V34H29.6631L22.2656 20.1328H18.0908V25.8701H20.6543V34ZM78.3926 34H45.9951V25.8701H48.6318V8.16992H45.9463V0.0400391H78.3926V10.9043H69.4814V8.16992H61.7666V13.3945H68.4805V20.3037H61.7666V25.8701H69.4814V23.1357H78.3926V34ZM100.584 8.16992V25.8701H101.829C104.922 25.8701 106.932 25.0482 107.859 23.4043C108.771 21.7604 109.227 19.6934 109.227 17.2031C109.227 15.7057 109.031 14.2246 108.641 12.7598C108.234 11.2949 107.518 10.1637 106.492 9.36621C105.483 8.56868 103.676 8.16992 101.072 8.16992H100.584ZM100.584 34H84.7881V25.8701H87.4492V8.16992H84.7881V0.0400391H101.048C104.759 0.0400391 107.786 0.267904 110.13 0.723633C112.49 1.17936 114.712 2.11523 116.795 3.53125C118.862 4.96354 120.49 6.90039 121.678 9.3418C122.264 10.5137 122.711 11.7669 123.021 13.1016C123.33 14.4362 123.484 15.8359 123.484 17.3008C123.484 20.2467 122.858 22.9323 121.604 25.3574C120.368 27.7663 118.797 29.6136 116.893 30.8994C115.037 32.1852 113.003 33.0234 110.789 33.4141C108.592 33.8047 105.19 34 100.584 34Z" fill="#DC272D"/>
<path d="M154.117 34H136.246V25.8701H138.81V8.16992H136.197V0.0400391H154.117V8.16992H151.944V13.3457H159.806V8.16992H157.608V0.0400391H175.504V8.16992H172.94V25.8701H175.504V34H157.608V25.8701H159.806V20.3037H151.944V25.8701H154.117V34ZM213.418 34H181.021V25.8701H183.657V8.16992H180.972V0.0400391H213.418V10.9043H204.507V8.16992H196.792V13.3945H203.506V20.3037H196.792V25.8701H204.507V23.1357H213.418V34ZM234.462 8.6582L231.264 18.0576H237.343L234.462 8.6582ZM231.264 34H217.812V25.8701H220.399L226.771 8.16992H224.037V0.0400391H248.451V8.16992H245.717L252.211 25.8701H254.701V34H236.977V26.5537H239.955L238.661 22.2812H229.97L228.48 26.5537H231.264V34ZM290.345 34H258.021V25.8701H261.072V8.16992H258.021V0.0400391H277.43V8.16992H274.207V25.8701H282.239V20.4258H290.345V34Z" fill="#DC272D"/>
</svg>
